<svg xmlns="http://www.w3.org/2000/svg" viewBox="0 0 1200 800" role="img" aria-labelledby="title desc"><title id="title">字位剧场 Slot Stories</title><desc id="desc">黑白分割画布中的字位盒子和角色图标</desc><rect width="1200" height="800" fill="#fff"/><rect width="1200" height="270" fill="#000"/><g fill="#050505" font-family="Arial,sans-serif" font-size="145" font-weight="700"><text x="95" y="520">char</text><text x="560" y="520">ct</text><text x="930" y="520">rs</text></g><rect x="425" y="390" width="120" height="120" rx="25" fill="#171717"/><path d="M468 430l35 20-35 20z" fill="#fff"/><g transform="translate(825 450)" fill="none" stroke="#111" stroke-width="10"><circle cy="-35" r="38"/><path d="M0 3v85M0 25l-48 35M0 25l48 35M0 88l-35 48M0 88l35 48"/></g><g transform="translate(600 195)"><rect x="-70" y="-48" width="140" height="95" rx="25" fill="#fff"/><rect x="-70" y="-88" width="140" height="55" rx="22" fill="#fff"/><path d="M-25-70v-70M25-70v-70" stroke="#fff" stroke-width="24" stroke-linecap="round"/></g><text x="42" y="754" fill="#111" opacity=".55" font-family="Arial" font-size="18" letter-spacing="4">SLOT STORIES · 41</text></svg>
